<svg id="Layer_1" data-name="Layer 1" xmlns="http://www.w3.org/2000/svg" viewBox="0 0 100 100"><defs><style>.cls-1{fill:#ff1e76;}</style></defs><title>logo-joy</title><rect class="cls-1" width="100" height="100"/><path d="M18.42,37.32a.39.39,0,0,1,.34.25,2.15,2.15,0,0,1,.2.59,5.88,5.88,0,0,1,.08.77c0,.27,0,.52,0,.76v.74c.19.43.43.89.72,1.4a9.35,9.35,0,0,0,1,1.4A6,6,0,0,0,22,44.33a2.52,2.52,0,0,0,1.41.44,2.44,2.44,0,0,0,1.51-.55,6.28,6.28,0,0,0,1.31-1.46,13.46,13.46,0,0,0,1.11-2.08c.34-.78.64-1.59.92-2.43s.51-1.67.72-2.51.39-1.6.54-2.3.28-1.31.36-1.83.16-.87.19-1.06c.23-1.38.43-2.71.6-4a29.58,29.58,0,0,0,.25-3.73c0-.3-.07-.47-.19-.51l-3.32,1.37a1.25,1.25,0,0,1-.46.12,1,1,0,0,1-.85-.47A2.24,2.24,0,0,1,25.77,22a6.75,6.75,0,0,1,.11-1.41,1.89,1.89,0,0,1,.36-.82,1.23,1.23,0,0,1,.65-.36,4.67,4.67,0,0,1,1-.08h.19l.82-.28,1.12-.4,1.32-.49,1.4-.52,1.42-.52,1.32-.47.27-.1.5-.16.54-.17a1.63,1.63,0,0,1,.34-.08.42.42,0,0,1,.29.14,1.05,1.05,0,0,1,.22.34,2,2,0,0,1,.14.47,2.2,2.2,0,0,1,.06.5,1.71,1.71,0,0,1-.31,1,3.1,3.1,0,0,1-.78.75,5.59,5.59,0,0,1-1,.57l-1,.46a6.36,6.36,0,0,0-.83.42.71.71,0,0,0-.38.46c0,.57-.09,1.21-.13,1.91s-.1,1.38-.15,2q0,.24-.12,1.14t-.24,2.19c-.1.85-.22,1.8-.37,2.82s-.32,2-.5,3-.48,2.24-.82,3.46a32.65,32.65,0,0,1-1.19,3.58,25.05,25.05,0,0,1-1.56,3.25,11,11,0,0,1-1.89,2.49c-.16.14-.35.28-.56.43a4.75,4.75,0,0,1-.71.37,5,5,0,0,1-.8.25,3.44,3.44,0,0,1-.84.1A4.83,4.83,0,0,1,22.07,48a8.56,8.56,0,0,1-1.62-.78A10.45,10.45,0,0,1,18.87,46a10.31,10.31,0,0,1-1.35-1.59,8.55,8.55,0,0,1-.94-1.86,6.36,6.36,0,0,1-.34-2.09A7.71,7.71,0,0,1,16.35,39a2.55,2.55,0,0,1,.37-1,1.48,1.48,0,0,1,.68-.55A2.59,2.59,0,0,1,18.42,37.32Z" transform="translate(0 0)"/><path d="M36.3,36.25a23.11,23.11,0,0,1,.7-3c.3-1,.66-2.05,1.07-3.07s.87-2.05,1.38-3,1-2,1.6-2.89,1.16-1.81,1.76-2.64S44,20,44.63,19.34a2.19,2.19,0,0,1,.79-.57,2.14,2.14,0,0,1,.76-.14,1.45,1.45,0,0,1,.76.19,2,2,0,0,1,.67.67,2.78,2.78,0,0,0,.23.31.31.31,0,0,0,.23.14s0,0,.07-.09,0-.12.08-.2.07-.16.12-.25a.47.47,0,0,1,.16-.18A1.3,1.3,0,0,1,49,19a4.48,4.48,0,0,1,.64-.05,2.25,2.25,0,0,1,1.16.33,3.14,3.14,0,0,1,1,.9,10,10,0,0,1,1.54,3.33,15.34,15.34,0,0,1,.53,4.16,24.82,24.82,0,0,1-.4,4.29,24.83,24.83,0,0,1-1,4A25.8,25.8,0,0,1,51,39.51a20.91,20.91,0,0,1-2,3.07A14.91,14.91,0,0,1,46.73,45a10.31,10.31,0,0,1-2.55,1.55,6.9,6.9,0,0,1-2.69.56,4.6,4.6,0,0,1-2.29-.57,5,5,0,0,1-1.71-1.6,7.67,7.67,0,0,1-1.07-2.46,12.4,12.4,0,0,1-.37-3.16q0-.75.06-1.5C36.15,37.28,36.21,36.77,36.3,36.25Zm2.27,1.31a11.72,11.72,0,0,0-.15,1.76,6.51,6.51,0,0,0,.26,1.92,4,4,0,0,0,.74,1.39,3.13,3.13,0,0,0,1.14.84,3.61,3.61,0,0,0,1.45.28,4.63,4.63,0,0,0,1.91-.43,7.41,7.41,0,0,0,1.9-1.25,13.28,13.28,0,0,0,1.78-2,17.67,17.67,0,0,0,1.59-2.62,24.25,24.25,0,0,0,1.3-3.18,26.46,26.46,0,0,0,.92-3.66,12.9,12.9,0,0,0,.19-1.46q.06-.76.06-1.47a13.7,13.7,0,0,0-.17-2.16,6.51,6.51,0,0,0-.58-1.84,3.52,3.52,0,0,0-1.06-1.28A2.63,2.63,0,0,0,48.24,22c-.08,0-.15.06-.2.17s-.1.25-.16.42-.09.29-.15.45a2.13,2.13,0,0,1-.23.42,1.14,1.14,0,0,1-.35.3,1,1,0,0,1-.51.12.61.61,0,0,1-.41-.15,2,2,0,0,1-.34-.4,1.94,1.94,0,0,0-.14-.18.13.13,0,0,0-.12-.07.57.57,0,0,0-.31.15c-.13.11-.27.23-.41.37l-.4.45a4.5,4.5,0,0,0-.3.41c-.61.92-1.21,1.91-1.82,3s-1.16,2.19-1.67,3.33-.95,2.3-1.33,3.47A21.68,21.68,0,0,0,38.57,37.56Z" transform="translate(0 0)"/><path d="M56.66,49.18a2.93,2.93,0,0,1,.17-1,5.43,5.43,0,0,1,.46-1A12.41,12.41,0,0,1,58,46.15c.25-.38.52-.77.79-1.19.53-.78,1.08-1.59,1.67-2.44s1.13-1.72,1.66-2.62c.22-.39.4-.71.53-1a5.89,5.89,0,0,0,.31-.61,2.43,2.43,0,0,0,.13-.42c0-.12,0-.23.05-.35a16.47,16.47,0,0,1-1-2.29c-.29-.82-.55-1.67-.78-2.57s-.43-1.79-.62-2.7-.35-1.8-.51-2.68-.3-1.59-.44-2.4a11.7,11.7,0,0,0-.54-2.09,11.71,11.71,0,0,1-.44-1.38,6.33,6.33,0,0,1-.18-1.57,7.62,7.62,0,0,1,.06-.87,3.75,3.75,0,0,1,.22-.92,2.38,2.38,0,0,1,.4-.74.76.76,0,0,1,.61-.3.94.94,0,0,1,.72.39,3.89,3.89,0,0,1,.61,1,8.46,8.46,0,0,1,.45,1.29A12.87,12.87,0,0,1,62,21c.09.56.2,1.25.33,2.09s.25,1.68.38,2.55.26,1.7.39,2.48.23,1.41.33,1.88.24,1.14.38,1.65a12.83,12.83,0,0,0,.4,1.33,5,5,0,0,0,.39.88c.13.21.26.32.37.32s.23-.18.42-.53q1.09-2.13,2.28-4.56c.79-1.62,1.57-3.22,2.32-4.81.27-.59.52-1.13.73-1.62s.41-1,.59-1.42.33-.89.47-1.31.28-.85.4-1.28l.35-2a3.73,3.73,0,0,1,.18-.63,4.06,4.06,0,0,1,.3-.59,1.48,1.48,0,0,1,.39-.43.79.79,0,0,1,.49-.17.91.91,0,0,1,.6.21,1.63,1.63,0,0,1,.42.54,3.68,3.68,0,0,1,.24.77,5.31,5.31,0,0,1,.08.91,6.42,6.42,0,0,1-.14,1.21c-.1.45-.22.92-.37,1.4s-.32,1-.51,1.43-.37.89-.55,1.27l-3.9,8.08c-1.31,2.72-2.65,5.34-4,7.84-1.21,2.22-2.39,4.29-3.54,6.19S60,48.19,59,49.61a6.24,6.24,0,0,1-.7.84,1.15,1.15,0,0,1-.82.39.52.52,0,0,1-.38-.15,1,1,0,0,1-.25-.38,2.35,2.35,0,0,1-.14-.54A4,4,0,0,1,56.66,49.18Z" transform="translate(0 0)"/><path d="M12.32,66.11c.4-1.79.79-3.52,1.15-5.17s.7-3.19,1-4.59.5-2.65.67-3.73A23.61,23.61,0,0,0,15.39,50,3.53,3.53,0,0,1,16,48.57a1.18,1.18,0,0,1,.95-.54.81.81,0,0,1,.55.21,1.55,1.55,0,0,1,.36.57,3,3,0,0,1,.21.79,5.26,5.26,0,0,1,.07.89,5.47,5.47,0,0,1,0,.6c0,.19,0,.36-.06.53-.21,1.2-.46,2.44-.74,3.71s-.58,2.57-.88,3.88-.6,2.62-.89,3.93-.56,2.61-.79,3.87l-.24,1.33c-.13.68-.24,1.32-.32,1.93A11,11,0,0,0,14,71.76a1.37,1.37,0,0,0,.08.5.32.32,0,0,0,.31.18,4,4,0,0,0,1.29-.26,14.75,14.75,0,0,0,1.52-.65c.53-.25,1.06-.53,1.58-.84s1-.59,1.44-.87l.6-.37.61-.38,1-.59,1.7-1,.33-.16a.54.54,0,0,1,.26-.07.65.65,0,0,1,.37.11.87.87,0,0,1,.24.32,1.84,1.84,0,0,1,.13.45,4,4,0,0,1,0,.5,5.58,5.58,0,0,1-.05.76,4.22,4.22,0,0,1-.1.53,3.32,3.32,0,0,1-.41.68,3.76,3.76,0,0,1-.54.52,4.2,4.2,0,0,1-.55.38,4.3,4.3,0,0,1-.44.24l-.57.31-.77.43-.86.48-.83.46-.69.38a4.68,4.68,0,0,1-.42.22L18,74.69c-.47.26-.94.51-1.41.74s-.9.43-1.32.6a3,3,0,0,1-1,.24,2.14,2.14,0,0,1-.8-.12,1.74,1.74,0,0,1-.52-.32,4.62,4.62,0,0,1-.46-.5,7.15,7.15,0,0,0-.62-.64,1.71,1.71,0,0,1-.5-.86,4.47,4.47,0,0,1-.15-1.17,6.79,6.79,0,0,1,0-.73c0-.27,0-.56.08-.86s.08-.59.12-.87.1-.54.15-.77Z" transform="translate(0 0)"/><path d="M29.47,58.81a1.91,1.91,0,0,1,.36-.9,1.24,1.24,0,0,1,.21-.2.37.37,0,0,1,.15-.05,1.22,1.22,0,0,1,.35.05l.39.08.41.12a.55.55,0,0,1,.5.41,2.4,2.4,0,0,1,.16.94,4.09,4.09,0,0,1-.08.8c-.3,1.63-.58,3-.83,4.25s-.46,2.23-.64,3.07-.31,1.54-.4,2.07a8.24,8.24,0,0,0-.14,1.21,6.26,6.26,0,0,0,.07.92,5.29,5.29,0,0,0,.22,1,2.5,2.5,0,0,0,.38.73.65.65,0,0,0,.55.29,1.75,1.75,0,0,0,1.14-.5,8,8,0,0,0,1.1-1.24,12.78,12.78,0,0,0,.94-1.57q.42-.83.69-1.47l.35-.88A19.13,19.13,0,0,0,36,66c.18-.71.34-1.43.48-2.14s.26-1.39.35-2,.18-1.14.23-1.52l.35-2.6a2.23,2.23,0,0,1,.33-1,.88.88,0,0,1,.74-.28,1.66,1.66,0,0,1,.61.1,1.08,1.08,0,0,1,.45.38,1.94,1.94,0,0,1,.28.74,5.45,5.45,0,0,1,.1,1.18,14.47,14.47,0,0,1-.18,2.06c-.12.81-.26,1.63-.4,2.45-.08.48-.16,1-.25,1.53s-.16,1.08-.22,1.62-.13,1.06-.17,1.55-.06.92-.06,1.32c0,.66,0,1.32,0,2s0,1.36,0,2.11c0,.34,0,.63,0,.9s0,.45-.06.58a3.5,3.5,0,0,1-.38,1.13.88.88,0,0,1-.8.38,1.33,1.33,0,0,1-.62-.13,1,1,0,0,1-.35-.34,1.38,1.38,0,0,1-.17-.48,3.29,3.29,0,0,1,0-.54l-.15-3.69-.12.06c-.3.55-.62,1.16-1,1.83a15.46,15.46,0,0,1-1.15,1.9,7.47,7.47,0,0,1-1.37,1.47,2.54,2.54,0,0,1-1.62.6,1,1,0,0,1-.45-.13,4.21,4.21,0,0,1-.57-.32,4.71,4.71,0,0,1-.56-.44,3.51,3.51,0,0,1-.43-.46,6.32,6.32,0,0,1-1.05-2.24A10.89,10.89,0,0,1,27.5,71a11.64,11.64,0,0,1,.08-1.45c.05-.48.11-1,.18-1.4s.15-.87.24-1.27.15-.75.21-1.06l.45-2.58c.14-.74.25-1.39.36-2s.19-1,.26-1.44S29.41,59.11,29.47,58.81Z" transform="translate(0 0)"/><path d="M42.39,68.55a25.79,25.79,0,0,1,.75-3.14,24.71,24.71,0,0,1,1.22-3.17A18.53,18.53,0,0,1,46,59.4a9.37,9.37,0,0,1,2-2.11,2.34,2.34,0,0,1,.76-.41,2.49,2.49,0,0,1,.85-.14,2.71,2.71,0,0,1,.82.12,1.39,1.39,0,0,1,.66.39,1.81,1.81,0,0,1,.43.7,3,3,0,0,1,.17,1,5.11,5.11,0,0,1-.1,1,3.47,3.47,0,0,1-.28.86,2,2,0,0,1-.47.62,1,1,0,0,1-.66.23,1,1,0,0,1-.54-.16,3.82,3.82,0,0,1-.47-.35C49,61.07,49,61,48.89,61a1.3,1.3,0,0,0-.26-.17,5.11,5.11,0,0,0-1,.93A8.74,8.74,0,0,0,46.74,63a11.66,11.66,0,0,0-.75,1.5c-.23.54-.44,1.07-.62,1.6s-.34,1.06-.47,1.58-.23,1-.32,1.41-.11.67-.16,1.07a9.17,9.17,0,0,0-.08,1.16,5.74,5.74,0,0,0,0,.74,2.32,2.32,0,0,0,.17.63,1.18,1.18,0,0,0,.32.43.8.8,0,0,0,.5.15,2.77,2.77,0,0,0,.93-.17,5.4,5.4,0,0,0,.9-.45,8.42,8.42,0,0,0,.87-.64l.82-.73.51-.49q.26-.25.48-.45a3.39,3.39,0,0,1,.43-.32.58.58,0,0,1,.34-.13A.55.55,0,0,1,51,70a.61.61,0,0,1,.18.5,2.36,2.36,0,0,1-.08.56,6.3,6.3,0,0,1-.51,1.37,6.76,6.76,0,0,1-.72,1.08,6.15,6.15,0,0,1-.84.85q-.45.38-.9.69a6.24,6.24,0,0,1-1.68,1,4.11,4.11,0,0,1-1.43.33,2,2,0,0,1-.44-.06,1.35,1.35,0,0,1-.44-.18,4,4,0,0,1-1.58-1.83,6.91,6.91,0,0,1-.5-2.74c0-.45,0-.93.08-1.43S42.29,69.1,42.39,68.55Z" transform="translate(0 0)"/><path d="M54.05,68.55a24.16,24.16,0,0,1,.76-3.14A23.28,23.28,0,0,1,56,62.24a18.53,18.53,0,0,1,1.61-2.84,9.6,9.6,0,0,1,2-2.11,2.29,2.29,0,0,1,.77-.41,2.39,2.39,0,0,1,.84-.14,2.71,2.71,0,0,1,.82.12,1.39,1.39,0,0,1,.66.39,2,2,0,0,1,.44.7,3.22,3.22,0,0,1,.16,1,4.38,4.38,0,0,1-.1,1,3.1,3.1,0,0,1-.28.86,1.85,1.85,0,0,1-.47.62,1,1,0,0,1-.65.23,1,1,0,0,1-.55-.16,3.82,3.82,0,0,1-.47-.35c-.08-.08-.16-.14-.23-.2a1.3,1.3,0,0,0-.26-.17,5.11,5.11,0,0,0-1,.93A8.74,8.74,0,0,0,58.4,63a15,15,0,0,0-.75,1.5c-.23.54-.44,1.07-.62,1.6s-.34,1.06-.47,1.58-.23,1-.31,1.41-.12.67-.17,1.07A9.17,9.17,0,0,0,56,71.31a5.74,5.74,0,0,0,0,.74,2.32,2.32,0,0,0,.17.63,1.18,1.18,0,0,0,.32.43.82.82,0,0,0,.5.15,2.77,2.77,0,0,0,.93-.17,5.4,5.4,0,0,0,.9-.45,7.47,7.47,0,0,0,.87-.64l.82-.73.51-.49q.26-.25.48-.45A4.29,4.29,0,0,1,62,70a.61.61,0,0,1,.34-.13.55.55,0,0,1,.37.15.61.61,0,0,1,.18.5,2.36,2.36,0,0,1-.08.56,6.3,6.3,0,0,1-.51,1.37,6.76,6.76,0,0,1-.72,1.08,5.64,5.64,0,0,1-.84.85c-.3.25-.6.48-.89.69a6.44,6.44,0,0,1-1.69,1,4.06,4.06,0,0,1-1.42.33,2,2,0,0,1-.45-.06,1.45,1.45,0,0,1-.44-.18,4,4,0,0,1-1.58-1.83,6.91,6.91,0,0,1-.5-2.74c0-.45,0-.93.08-1.43S54,69.1,54.05,68.55Z" transform="translate(0 0)"/><path d="M74.92,77.3a1.21,1.21,0,0,1-1.14-.52,2.84,2.84,0,0,1-.31-1.45,8,8,0,0,1,.07-1c0-.38.1-.77.17-1.17q.2-1,.42-2.07c.16-.68.32-1.37.47-2.07s.31-1.39.46-2.09.28-1.39.4-2.09c0-.07,0-.15,0-.26a.78.78,0,0,0-.1-.43.3.3,0,0,0-.28-.15,1.33,1.33,0,0,0-.63.17,2.58,2.58,0,0,0-.57.39,18.86,18.86,0,0,0-1.58,1.74,17.39,17.39,0,0,0-1.24,1.8,22,22,0,0,0-1.06,2c-.34.71-.69,1.49-1.06,2.33s-.54,1.57-.69,2.16S68,75.61,67.83,76a2.13,2.13,0,0,1-.43.79,1,1,0,0,1-.72.24.78.78,0,0,1-.76-.45,2.63,2.63,0,0,1-.22-1.17,7.61,7.61,0,0,1,.12-1.27L70.24,48.3a3,3,0,0,1,.14-.51,1.8,1.8,0,0,1,.25-.5,1.61,1.61,0,0,1,.38-.4.89.89,0,0,1,.5-.15l.46,0a1.89,1.89,0,0,1,.44.11.8.8,0,0,1,.32.29,1,1,0,0,1,.12.51,2.44,2.44,0,0,1,0,.32c0,.16,0,.35-.08.55-.49,2.83-1,5.77-1.55,8.83l-1.67,9.28A28.3,28.3,0,0,1,71.23,64a14.75,14.75,0,0,1,1.82-2.09A7.84,7.84,0,0,1,75,60.5a4.58,4.58,0,0,1,2.07-.5,1.17,1.17,0,0,1,1.06.63,3.16,3.16,0,0,1,.37,1.62,4.3,4.3,0,0,1-.08.88c-.1.59-.22,1.18-.36,1.76s-.27,1.16-.41,1.75-.29,1.18-.43,1.79-.27,1.23-.38,1.86a23.31,23.31,0,0,0-.29,2.34c-.06.73-.09,1.32-.11,1.76a9.49,9.49,0,0,1-.12,1.1,3.5,3.5,0,0,1-.28.93,1.93,1.93,0,0,1-.45.64A1,1,0,0,1,74.92,77.3Z" transform="translate(0 0)"/><path d="M87.28,75.35A12.31,12.31,0,0,1,87.37,74a17.7,17.7,0,0,0,.09-2c-.29.31-.62.68-1,1.11s-.73.84-1.12,1.24a8.28,8.28,0,0,1-1.14,1,1.88,1.88,0,0,1-1.07.4,1.8,1.8,0,0,1-.76-.17,2.08,2.08,0,0,1-.62-.47,5.84,5.84,0,0,1-1-1.64,5.37,5.37,0,0,1-.31-1.92,9,9,0,0,1,.06-1c0-.35.1-.76.18-1.21a21.42,21.42,0,0,1,1.75-5.72,16,16,0,0,1,3.08-4.48,3.35,3.35,0,0,1,1.42-.93,5.26,5.26,0,0,1,1.4-.2,4.62,4.62,0,0,1,.7.06l.69.11a4.17,4.17,0,0,1,.5-.13,1.78,1.78,0,0,1,.41,0,1.36,1.36,0,0,1,.67.15,1.33,1.33,0,0,1,.43.42,2.21,2.21,0,0,1,.23.61,3.35,3.35,0,0,1,.07.71,4.37,4.37,0,0,1-.1,1c-.07.3-.15.61-.22.93L89.94,72.09c0,.56-.06,1.07-.09,1.54a10,10,0,0,1-.16,1.31c0,.12-.06.27-.1.44a1.87,1.87,0,0,1-.2.51,1.7,1.7,0,0,1-.33.42.76.76,0,0,1-.52.17,2.45,2.45,0,0,1-.67-.07.94.94,0,0,1-.38-.23.64.64,0,0,1-.17-.35A2.33,2.33,0,0,1,87.28,75.35Zm-4.45-5.9q-.06.28-.12.78a8.72,8.72,0,0,0-.06,1,3.93,3.93,0,0,0,.11,1,.47.47,0,0,0,.47.42,1.76,1.76,0,0,0,1-.36,5.77,5.77,0,0,0,.92-.87c.38-.46.77-1,1.17-1.54s.77-1.16,1.13-1.78a20.21,20.21,0,0,0,.94-1.93,9.75,9.75,0,0,0,.59-2c.07-.38.13-.81.18-1.31s.08-.94.08-1.33a1.74,1.74,0,0,0-.08-.5.32.32,0,0,0-.31-.24,2.64,2.64,0,0,0-1.32.37,5.79,5.79,0,0,0-1.28,1,9.45,9.45,0,0,0-1.17,1.47,14.5,14.5,0,0,0-1,1.82,17.11,17.11,0,0,0-.78,2A14.26,14.26,0,0,0,82.83,69.45Z" transform="translate(0 0)"/></svg>